# 3ds Max Wavefront OBJ Exporter v0.97b - (c)2007 guruware
# File Created: 19.09.2015 16:27:02

mtllib 3d-model.mtl

#
# object Group_001
#

v  24.2047 14.4035 7.3031
v  15.5991 13.5271 7.3031
v  25.0394 13.5271 7.3031
v  25.0394 21.5152 7.3031
v  24.2047 20.6389 7.3031
v  -24.2047 20.6389 7.3031
v  -25.0394 21.5152 7.3031
v  -24.2047 14.4035 7.3031
v  -25.0394 13.5271 7.3031
v  -14.1890 14.4035 7.3031
v  -15.5991 13.5271 7.3031
v  -14.1890 13.5271 7.3031
v  14.1890 13.5271 7.3031
v  14.1890 14.4035 7.3031
v  -15.5991 13.5271 -6.4685
v  -15.5991 13.5271 -7.3031
v  -14.1890 13.5271 -7.3031
v  -14.1890 13.5271 -6.4685
v  -24.2047 14.4035 -7.3031
v  -25.0394 13.5271 -7.3031
v  -25.0394 21.5152 -7.3031
v  -24.2047 20.6389 -7.3031
v  24.2047 20.6389 -7.3031
v  25.0394 21.5152 -7.3031
v  24.2047 14.4035 -7.3031
v  25.0394 13.5271 -7.3031
v  14.1890 14.4035 -7.3031
v  15.5991 13.5271 -7.3031
v  14.1890 13.5271 -7.3031
v  -14.1890 14.4035 -7.3031
v  -18.9563 8.9930 6.4685
v  -18.5073 9.5993 6.4685
v  -18.5073 9.5993 -6.4685
v  -18.9563 8.9930 -6.4685
v  25.0394 0.0000 7.3031
v  25.0394 0.0000 6.4685
v  25.6149 0.0000 6.4685
v  25.6149 0.0000 7.3031
v  -17.0972 9.5993 -6.4685
v  -17.0972 9.5993 -7.3031
v  -25.0394 0.0000 -6.4685
v  -24.2047 0.0000 -6.4685
v  -17.5462 8.9930 -6.4685
v  -25.6149 0.0000 -6.4685
v  -17.5462 8.9930 6.4685
v  -17.0972 9.5993 6.4685
v  24.2047 0.0000 6.4685
v  17.5462 8.9930 6.4685
v  18.9563 8.9930 6.4685
v  17.5462 8.9930 -6.4685
v  18.9563 8.9930 -6.4685
v  -24.2047 0.0000 -7.3031
v  -17.5462 8.9930 -7.3031
v  17.0972 9.5993 6.4685
v  17.0972 9.5993 -6.4685
v  18.5073 9.5993 6.4685
v  18.5073 9.5993 -6.4685
v  15.5991 13.5271 -6.4685
v  15.5991 13.5271 6.4685
v  14.1890 13.5271 6.4685
v  14.1890 13.5271 -6.4685
v  -25.0394 0.0000 -7.3031
v  -25.0394 0.0000 6.4685
v  -25.6149 0.0000 6.4685
v  -24.2047 0.0000 6.4685
v  -25.6149 0.0000 -7.3031
v  24.2047 0.0000 -6.4685
v  17.5462 8.9930 -7.3031
v  24.2047 0.0000 -7.3031
v  24.2047 0.0000 7.3031
v  -15.5991 13.5271 6.4685
v  -14.1890 13.5271 6.4685
v  -25.0394 0.0000 7.3031
v  -24.2047 0.0000 7.3031
v  -25.6149 0.0000 7.3031
v  25.6149 0.0000 -6.4685
v  25.6149 0.0000 -7.3031
v  25.0394 0.0000 -7.3031
v  25.0394 0.0000 -6.4685
v  17.0972 9.5993 -7.3031
# 80 vertices

vn 0.0000 0.0000 1.0000
vn 0.0000 -1.0000 -0.0000
vn 0.0000 0.0000 -1.0000
vn -0.8037 0.5951 -0.0000
vn 0.8037 -0.5951 -0.0000
vn 0.0000 1.0000 -0.0000
vn -0.8037 -0.5951 0.0000
vn -1.0000 0.0000 -0.0000
vn 0.8037 0.5951 -0.0000
vn 1.0000 0.0000 -0.0000
# 10 vertex normals

vt 5.5258 1.5976 0.0000
vt 4.5713 1.5004 0.0000
vt 5.6184 1.5004 0.0000
vt 5.6184 2.3864 0.0000
vt 5.5258 2.2892 0.0000
vt 0.1564 2.2892 0.0000
vt 0.0638 2.3864 0.0000
vt 0.1564 1.5976 0.0000
vt 0.0638 1.5004 0.0000
vt 1.2673 1.5976 0.0000
vt 1.1109 1.5004 0.0000
vt 1.2673 1.5004 0.0000
vt 4.4149 1.5004 0.0000
vt 4.4149 1.5976 0.0000
vt -1.1109 1.5275 0.0000
vt -1.1109 1.6201 0.0000
vt -1.2673 1.6201 0.0000
vt -1.2673 1.5275 0.0000
vt -0.1564 1.5976 0.0000
vt -1.1109 1.5004 0.0000
vt -0.0638 1.5004 0.0000
vt -0.0638 2.3864 0.0000
vt -0.1564 2.2892 0.0000
vt -5.5258 2.2892 0.0000
vt -5.6184 2.3864 0.0000
vt -5.5258 1.5976 0.0000
vt -5.6184 1.5004 0.0000
vt -4.4149 1.5976 0.0000
vt -4.5713 1.5004 0.0000
vt -4.4149 1.5004 0.0000
vt -1.2673 1.5004 0.0000
vt -1.2673 1.5976 0.0000
vt -0.0926 1.2411 0.0000
vt -0.0926 1.3248 0.0000
vt -1.5275 1.3248 0.0000
vt -1.5275 1.2411 0.0000
vt -5.6184 0.0000 0.0000
vt -5.6184 0.0926 0.0000
vt -5.6822 0.0926 0.0000
vt -5.6822 0.0000 0.0000
vt 1.5275 1.9600 0.0000
vt 1.5275 1.4179 0.0000
vt 1.6201 1.4179 0.0000
vt 1.6201 1.9600 0.0000
vt 0.0638 0.0000 0.0000
vt 0.1564 0.0000 0.0000
vt 0.8950 0.9975 0.0000
vt 0.0000 0.0000 0.0000
vt 0.7385 0.9975 0.0000
vt 0.9448 1.0647 0.0000
vt 0.7883 1.0647 0.0000
vt -0.1564 0.0000 0.0000
vt -0.1564 1.6201 0.0000
vt -5.5258 1.6201 0.0000
vt -5.5258 0.0000 0.0000
vt -4.7873 0.9975 0.0000
vt -4.9437 0.9975 0.0000
vt -0.7385 0.0926 0.0000
vt -0.7385 1.5275 0.0000
vt -0.8950 1.5275 0.0000
vt -0.8950 0.0926 0.0000
vt -4.7873 1.5275 0.0000
vt -4.7873 0.0926 0.0000
vt -4.9437 1.5275 0.0000
vt -4.9437 0.0926 0.0000
vt 1.5275 1.3342 0.0000
vt 1.5275 0.0931 0.0000
vt 1.6201 0.0931 0.0000
vt 1.6201 1.3342 0.0000
vt 0.7883 1.5275 0.0000
vt 0.7883 0.0926 0.0000
vt 0.9448 0.0926 0.0000
vt 0.9448 1.5275 0.0000
vt 4.7375 0.0926 0.0000
vt 4.7375 1.5275 0.0000
vt 4.8939 0.0926 0.0000
vt 4.8939 1.5275 0.0000
vt 4.7873 0.9975 0.0000
vt 4.9437 0.9975 0.0000
vt 4.8939 1.0647 0.0000
vt 4.7375 1.0647 0.0000
vt -4.5713 1.5275 0.0000
vt -4.5713 1.6201 0.0000
vt -5.6184 1.6201 0.0000
vt -4.5713 0.0926 0.0000
vt -4.5713 0.0000 0.0000
vt -4.4149 0.0926 0.0000
vt -4.4149 1.5275 0.0000
vt -0.0638 1.5275 0.0000
vt -0.0638 1.6201 0.0000
vt -0.1564 1.5275 0.0000
vt -0.0638 0.0000 0.0000
vt -0.7385 0.9975 0.0000
vt -0.8950 0.9975 0.0000
vt 0.0000 1.5275 0.0000
vt 0.0000 1.6201 0.0000
vt -1.5275 -3.2882 0.0000
vt -1.5275 -2.0471 0.0000
vt -1.6201 -2.0471 0.0000
vt -1.6201 -3.2882 0.0000
vt 4.4149 1.6201 0.0000
vt 4.4149 0.0000 0.0000
vt 5.5258 0.0000 0.0000
vt 5.5258 1.6201 0.0000
vt 0.0000 1.5004 0.0000
vt 0.0000 2.3864 0.0000
vt -1.6201 2.3864 0.0000
vt -1.6201 1.5004 0.0000
vt 5.6184 -0.0000 0.0000
vt 5.6822 -0.0000 0.0000
vt -0.9448 1.0647 0.0000
vt -0.7883 1.0647 0.0000
vt -0.0638 0.0926 0.0000
vt -0.1564 0.0926 0.0000
vt 0.0638 1.6201 0.0000
vt 5.6184 1.6201 0.0000
vt 0.0000 1.8669 0.0000
vt -0.0926 1.8669 0.0000
vt -0.0926 0.0000 0.0000
vt 1.5275 -2.1402 0.0000
vt 1.5275 -3.3813 0.0000
vt 1.6201 -3.3813 0.0000
vt 1.5275 -2.0565 0.0000
vt 1.5275 -1.5144 0.0000
vt 1.6201 -1.5144 0.0000
vt -4.8939 1.0647 0.0000
vt -4.7375 1.0647 0.0000
vt -5.5258 1.5275 0.0000
vt -5.6184 1.5275 0.0000
vt -5.5258 0.0926 0.0000
vt 0.0000 -3.3813 0.0000
vt 0.0926 -3.3813 0.0000
vt 0.0926 -2.1402 0.0000
vt 0.0926 -2.0565 0.0000
vt 0.0926 -1.5144 0.0000
vt 0.0000 -1.5144 0.0000
vt 1.6201 1.5004 0.0000
vt 1.6201 2.3864 0.0000
vt 0.0000 0.0926 0.0000
vt -5.6822 1.6201 0.0000
vt -5.6822 1.5275 0.0000
vt 0.0000 2.2892 0.0000
vt 0.0000 1.5976 0.0000
vt 1.6201 1.5976 0.0000
vt 1.6201 2.2892 0.0000
vt -1.1109 0.0000 0.0000
vt -1.1109 0.0926 0.0000
vt -1.2673 0.0926 0.0000
vt -1.2673 0.0000 0.0000
vt 0.0000 1.9600 0.0000
vt 0.0926 0.0931 0.0000
vt 0.0926 1.9600 0.0000
vt 0.0926 1.3342 0.0000
vt 0.0926 1.4179 0.0000
vt -1.5275 -1.9634 0.0000
vt -1.6201 -1.9634 0.0000
vt -1.5275 -1.4213 0.0000
vt -1.6201 -1.4213 0.0000
vt -1.6201 2.2892 0.0000
vt -1.6201 1.5976 0.0000
vt 0.1564 1.6201 0.0000
vt 1.2673 0.0000 0.0000
vt 1.2673 1.6201 0.0000
vt -1.5275 1.8669 0.0000
vt -1.6201 1.8669 0.0000
vt -1.5275 -0.0000 0.0000
vt -1.6201 -0.0000 0.0000
vt -0.0926 1.5004 0.0000
vt -1.5275 1.5004 0.0000
vt -4.4149 1.6201 0.0000
vt -4.4149 0.0000 0.0000
vt -0.0000 -3.2882 0.0000
vt -0.0000 -1.4213 0.0000
vt -0.0926 -1.4213 0.0000
vt -0.0926 -3.2882 0.0000
vt -0.0926 -1.9634 0.0000
vt -0.0926 -2.0471 0.0000
vt 0.0926 1.5004 0.0000
vt 1.5275 1.5004 0.0000
# 179 texture coords

g Group_001
usemtl wire_134006006
s off
f 1/1/1 2/2/1 3/3/1 4/4/1 
f 5/5/1 1/1/1 4/4/1 6/6/1 
f 6/6/1 4/4/1 7/7/1 8/8/1 
f 8/8/1 7/7/1 9/9/1 10/10/1 
f 10/10/1 9/9/1 11/11/1 12/12/1 
f 13/13/1 2/2/1 1/1/1 14/14/1 
f 15/15/2 16/16/2 17/17/2 18/18/2 
f 19/19/3 16/20/3 20/21/3 21/22/3 
f 22/23/3 19/19/3 21/22/3 23/24/3 
f 23/24/3 21/22/3 24/25/3 25/26/3 
f 25/26/3 24/25/3 26/27/3 27/28/3 
f 27/28/3 26/27/3 28/29/3 29/30/3 
f 17/31/3 16/20/3 19/19/3 30/32/3 
f 31/33/4 32/34/4 33/35/4 34/36/4 
f 35/37/2 36/38/2 37/39/2 38/40/2 
f 18/41/5 39/42/5 40/43/5 17/44/5 
f 41/45/1 42/46/1 43/47/1 44/48/1 
f 44/48/1 43/47/1 34/49/1 
f 31/49/1 45/47/1 46/50/1 32/51/1 
f 6/52/2 22/53/2 23/54/2 5/55/2 
f 36/37/3 47/55/3 48/56/3 37/40/3 
f 37/40/3 48/56/3 49/57/3 
f 31/58/2 34/59/2 43/60/2 45/61/2 
f 45/61/2 43/60/2 50/62/2 48/63/2 
f 48/63/2 50/62/2 51/64/2 49/65/2 
f 43/66/5 42/67/5 52/68/5 53/69/5 
f 33/70/6 32/71/6 46/72/6 39/73/6 
f 39/73/6 46/72/6 54/74/6 55/75/6 
f 55/75/6 54/74/6 56/76/6 57/77/6 
f 50/78/1 51/79/1 57/80/1 55/81/1 
f 58/82/2 28/83/2 26/84/2 59/85/2 
f 2/86/2 59/85/2 26/84/2 3/37/2 
f 58/82/2 59/85/2 60/87/2 61/88/2 
f 41/89/2 62/90/2 52/53/2 42/91/2 
f 63/92/3 64/48/3 31/93/3 65/52/3 
f 65/52/3 31/93/3 45/94/3 
f 44/95/2 66/96/2 62/90/2 41/89/2 
f 34/49/1 43/47/1 39/50/1 33/51/1 
f 67/97/7 50/98/7 68/99/7 69/100/7 
f 27/101/6 14/102/6 1/103/6 25/104/6 
f 9/105/8 7/106/8 21/107/8 20/108/8 
f 35/109/1 38/110/1 2/2/1 70/103/1 
f 70/103/1 2/2/1 13/13/1 
f 55/81/1 57/80/1 58/2/1 61/13/1 
f 46/111/3 32/112/3 71/20/3 72/31/3 
f 73/92/2 63/113/2 65/114/2 74/52/2 
f 21/115/6 7/45/6 4/109/6 24/116/6 
f 75/48/4 11/117/4 71/118/4 64/119/4 
f 64/119/4 71/118/4 32/34/4 31/33/4 
f 51/120/9 76/121/9 77/122/9 57/123/9 
f 58/124/9 57/123/9 77/122/9 28/125/9 
f 56/126/3 54/127/3 60/30/3 59/29/3 
f 67/128/2 69/54/2 78/84/2 79/129/2 
f 70/55/2 47/130/2 36/38/2 35/37/2 
f 38/131/9 37/132/9 49/133/9 56/134/9 
f 38/131/9 56/134/9 59/135/9 2/136/9 
f 4/106/10 3/105/10 26/137/10 24/138/10 
f 75/48/2 64/139/2 63/113/2 73/92/2 
f 48/78/1 49/79/1 56/80/1 54/81/1 
f 62/92/3 66/48/3 16/20/3 52/52/3 
f 53/94/3 52/52/3 16/20/3 40/111/3 
f 40/111/3 16/20/3 17/31/3 
f 79/129/2 78/84/2 77/140/2 76/141/2 
f 33/51/1 39/50/1 18/12/1 15/11/1 
f 6/142/10 8/143/10 19/144/10 22/145/10 
f 11/146/2 71/147/2 72/148/2 12/149/2 
f 12/150/5 74/139/5 65/151/5 72/152/5 
f 72/152/5 65/151/5 45/153/5 46/154/5 
f 45/47/1 48/78/1 54/81/1 46/50/1 
f 50/56/3 43/94/3 39/111/3 55/127/3 
f 50/98/7 55/155/7 80/156/7 68/99/7 
f 55/155/7 61/157/7 29/158/7 80/156/7 
f 71/147/2 15/15/2 18/18/2 72/148/2 
f 15/15/2 71/147/2 11/146/2 16/16/2 
f 16/16/2 11/146/2 9/92/2 20/90/2 
f 56/134/9 49/133/9 51/120/9 57/123/9 
f 1/143/8 5/142/8 23/159/8 25/160/8 
f 78/37/3 69/55/3 68/56/3 77/40/3 
f 28/29/3 77/40/3 68/56/3 80/127/3 
f 28/29/3 80/127/3 29/30/3 
f 19/161/6 8/46/6 10/162/6 30/163/6 
f 33/35/4 15/164/4 16/165/4 34/36/4 
f 44/166/4 34/36/4 16/165/4 66/167/4 
f 13/105/8 14/143/8 27/160/8 60/168/8 
f 61/169/8 60/168/8 27/160/8 29/108/8 
f 61/88/2 29/170/2 28/83/2 58/82/2 
f 73/45/1 74/46/1 12/12/1 75/48/1 
f 75/48/1 12/12/1 11/11/1 
f 13/171/2 60/87/2 59/85/2 2/86/2 
f 39/42/5 43/66/5 53/69/5 40/43/5 
f 70/172/7 13/173/7 60/174/7 47/175/7 
f 47/175/7 60/174/7 54/176/7 48/177/7 
f 10/143/10 12/105/10 72/178/10 30/144/10 
f 30/144/10 72/178/10 18/179/10 17/137/10 
f 79/109/1 76/110/1 51/79/1 67/103/1 
f 67/103/1 51/79/1 50/78/1 
# 88 polygons - 8 triangles

